<svg xmlns="http://www.w3.org/2000/svg" width="500" viewBox="0 0 375 375" height="500" version="1.0"><defs><clipPath id="a"><path d="M47.633 47.633h279.734v279.734H47.633Zm0 0"/></clipPath><clipPath id="b"><path d="M187.5 47.633c-77.246 0-139.867 62.62-139.867 139.867 0 77.246 62.62 139.867 139.867 139.867 77.246 0 139.867-62.62 139.867-139.867 0-77.246-62.62-139.867-139.867-139.867Zm0 0"/></clipPath><clipPath id="c"><path d="M110.324 195.793h8.496v20.25h-8.496Zm0 0"/></clipPath><clipPath id="d"><path d="M112.047 195.793h5.05a1.72 1.72 0 0 1 1.723 1.723v16.8a1.72 1.72 0 0 1-1.722 1.723h-5.051a1.72 1.72 0 0 1-1.723-1.723v-16.8a1.72 1.72 0 0 1 1.723-1.723Zm0 0"/></clipPath><clipPath id="e"><path d="M110.324 248.035h8.496v14.707h-8.496Zm0 0"/></clipPath><clipPath id="f"><path d="M112.047 248.035h5.05c.458 0 .895.184 1.22.504.324.324.503.766.503 1.223v11.254a1.72 1.72 0 0 1-1.722 1.722h-5.051a1.72 1.72 0 0 1-1.723-1.722v-11.254c0-.457.18-.899.504-1.223.324-.32.762-.504 1.219-.504Zm0 0"/></clipPath><clipPath id="g"><path d="M171.828 145.648h10.442v24.88h-10.442Zm0 0"/></clipPath><clipPath id="h"><path d="M173.555 145.648h6.988c.953 0 1.727.774 1.727 1.727v21.422c0 .953-.774 1.726-1.727 1.726h-6.988a1.727 1.727 0 0 1-1.727-1.726v-21.422c0-.953.774-1.727 1.727-1.727Zm0 0"/></clipPath><clipPath id="i"><path d="M171.828 209.832h10.442v18.063h-10.442Zm0 0"/></clipPath><clipPath id="j"><path d="M173.555 209.832h6.988c.953 0 1.727.77 1.727 1.723v14.613c0 .953-.774 1.727-1.727 1.727h-6.988a1.727 1.727 0 0 1-1.727-1.727v-14.613c0-.953.774-1.723 1.727-1.723Zm0 0"/></clipPath><clipPath id="k"><path d="M244.04 100.117h12.312v29.344h-12.313Zm0 0"/></clipPath><clipPath id="l"><path d="M245.766 100.117h8.863c.953 0 1.723.774 1.723 1.727v25.89a1.72 1.72 0 0 1-1.723 1.723h-8.863c-.953 0-1.727-.77-1.727-1.723v-25.89c0-.953.774-1.727 1.727-1.727Zm0 0"/></clipPath><clipPath id="m"><path d="M244.04 175.824h12.312v21.309h-12.313Zm0 0"/></clipPath><clipPath id="n"><path d="M245.766 175.824h8.863c.953 0 1.723.77 1.723 1.723v17.86a1.72 1.72 0 0 1-1.723 1.722h-8.863c-.953 0-1.727-.77-1.727-1.723v-17.86c0-.952.774-1.722 1.727-1.722Zm0 0"/></clipPath></defs><g clip-path="url(#a)"><g clip-path="url(#b)"><path fill="#00895a" d="M47.633 47.633h279.734v279.734H47.633Zm0 0"/></g></g><path d="M135.618 240.046c.52 0 .969.196 1.344.578.383.375.578.825.578 1.344v10.781c0 .524-.195.977-.578 1.36a1.836 1.836 0 0 1-1.344.562H94.884c-.524 0-.977-.187-1.36-.562a1.847 1.847 0 0 1-.578-1.36v-10.28c0-.946.36-1.782 1.078-2.5l19.97-20.75h-18.75a1.9 1.9 0 0 1-1.376-.563 1.9 1.9 0 0 1-.562-1.375v-10.625c0-.52.187-.97.562-1.344a1.884 1.884 0 0 1 1.375-.578h39.453c.52 0 .969.195 1.344.578.383.375.578.824.578 1.344v10.125c0 .96-.308 1.746-.922 2.359l-18.906 20.906Zm0 0" fill="#fff"/><g clip-path="url(#c)"><g clip-path="url(#d)"><path fill="#fff" d="M110.324 195.793h8.496v20.25h-8.496Zm0 0"/></g></g><g clip-path="url(#e)"><g clip-path="url(#f)"><path fill="#fff" d="M110.324 248.035h8.496v14.707h-8.496Zm0 0"/></g></g><path d="M202.905 200.014c.645 0 1.203.234 1.672.703.469.469.703 1.023.703 1.656v13.25c0 .637-.234 1.188-.703 1.656a2.286 2.286 0 0 1-1.672.703h-50.047c-.648 0-1.203-.234-1.672-.703-.468-.468-.703-1.02-.703-1.656v-12.625c0-1.176.442-2.203 1.328-3.078l24.532-25.5h-23.047c-.649 0-1.203-.234-1.672-.703a2.295 2.295 0 0 1-.688-1.672v-13.063c0-.632.227-1.187.688-1.656.469-.469 1.023-.703 1.672-.703h48.468c.645 0 1.204.234 1.672.703.47.469.703 1.024.703 1.656v12.454c0 1.168-.382 2.132-1.14 2.89l-23.235 25.688Zm0 0" fill="#fff"/><g clip-path="url(#g)"><g clip-path="url(#h)"><path fill="#fff" d="M171.828 145.648h10.442v24.88h-10.442Zm0 0"/></g></g><g clip-path="url(#i)"><g clip-path="url(#j)"><path fill="#fff" d="M171.828 209.832h10.442v18.063h-10.442Zm0 0"/></g></g><path d="M280.7 164.251c.759 0 1.41.278 1.954.829.55.543.828 1.195.828 1.953v15.61c0 .76-.277 1.417-.828 1.968a2.635 2.635 0 0 1-1.953.828h-59.047c-.75 0-1.402-.273-1.953-.828-.555-.55-.828-1.207-.828-1.969v-14.89c0-1.376.515-2.579 1.547-3.61l28.953-30.094h-27.188c-.762 0-1.418-.273-1.969-.828-.554-.55-.828-1.203-.828-1.953v-15.406c0-.758.274-1.414.828-1.969.551-.55 1.207-.828 1.97-.828h57.171c.75 0 1.398.277 1.953.828.55.555.828 1.211.828 1.969v14.672c0 1.386-.449 2.527-1.343 3.422l-27.391 30.296Zm0 0" fill="#fff"/><g clip-path="url(#k)"><g clip-path="url(#l)"><path fill="#fff" d="M244.04 100.117h12.312v29.344h-12.313Zm0 0"/></g></g><g clip-path="url(#m)"><g clip-path="url(#n)"><path fill="#fff" d="M244.04 175.824h12.312v21.309h-12.313Zm0 0"/></g></g></svg>